<svg width="14" height="16" viewBox="0 0 14 16" fill="none" xmlns="http://www.w3.org/2000/svg">
<path d="M12.1667 7.33338C12.1667 6.37671 12.1654 5.70934 12.0977 5.20577C12.0402 4.7776 11.9412 4.52541 11.7937 4.34575L11.7273 4.27283C11.5431 4.0884 11.2836 3.96818 10.7944 3.90239C10.2908 3.83469 9.62341 3.83338 8.66675 3.83338H6.66675C5.71008 3.83338 5.04271 3.83469 4.53914 3.90239C4.11097 3.95997 3.85878 4.05889 3.67912 4.20642L3.6062 4.27283C3.42177 4.45705 3.30156 4.71652 3.23576 5.20577C3.16806 5.70934 3.16675 6.37671 3.16675 7.33338V10.6667C3.16675 11.6234 3.16806 12.2907 3.23576 12.7943C3.30156 13.2836 3.42177 13.543 3.6062 13.7273L3.67912 13.7937C3.85878 13.9412 4.11097 14.0401 4.53914 14.0977C5.04271 14.1654 5.71008 14.1667 6.66675 14.1667H8.66675C9.62341 14.1667 10.2908 14.1654 10.7944 14.0977C11.2836 14.0319 11.5431 13.9117 11.7273 13.7273L11.7937 13.6543C11.9412 13.4747 12.0402 13.2225 12.0977 12.7943C12.1654 12.2907 12.1667 11.6234 12.1667 10.6667V7.33338ZM13.1667 10.6667C13.1667 11.5952 13.168 12.3421 13.0893 12.9278C13.0136 13.4904 12.8568 13.9699 12.5066 14.3581L12.4343 14.4343C12.0332 14.8357 11.5278 15.0085 10.9278 15.0892C10.3421 15.168 9.59522 15.1667 8.66675 15.1667H6.66675C5.73828 15.1667 4.9914 15.168 4.40568 15.0892C3.84305 15.0136 3.3636 14.8568 2.97534 14.5066L2.89917 14.4343C2.49774 14.0332 2.32491 13.5278 2.24422 12.9278C2.16546 12.3421 2.16675 11.5952 2.16675 10.6667V7.33338C2.16675 6.4049 2.16546 5.65803 2.24422 5.07231C2.32491 4.47233 2.49774 3.96688 2.89917 3.5658L2.97534 3.49353C3.3636 3.1433 3.84305 2.98652 4.40568 2.91085C4.9914 2.83209 5.73828 2.83338 6.66675 2.83338H8.66675C9.59522 2.83338 10.3421 2.83209 10.9278 2.91085C11.5278 2.99154 12.0332 3.16437 12.4343 3.5658L12.5066 3.64197C12.8568 4.03022 13.0136 4.50967 13.0893 5.07231C13.168 5.65803 13.1667 6.4049 13.1667 7.33338V10.6667Z" fill="#5C5C5C"/>
<path d="M0.166748 10.6667V6.66671C0.166748 5.42385 0.165771 4.44111 0.268962 3.67387C0.374087 2.89242 0.595457 2.25979 1.09448 1.76111C1.59344 1.26258 2.22634 1.04081 3.00789 0.935588C3.77503 0.832345 4.7573 0.833374 6.00008 0.833374H8.66675C9.32979 0.833374 9.96549 1.09696 10.4343 1.5658C10.9032 2.03464 11.1667 2.67033 11.1667 3.33337H10.1667C10.1667 2.93555 10.0086 2.55413 9.7273 2.27283C9.44599 1.99152 9.06457 1.83337 8.66675 1.83337H6.00008C4.72919 1.83337 3.82632 1.83494 3.14136 1.92712C2.47086 2.01739 2.08388 2.18609 1.80151 2.46814C1.51936 2.75006 1.35006 3.13662 1.25985 3.80733C1.16771 4.49242 1.16675 5.39557 1.16675 6.66671V10.6667C1.16675 11.0645 1.3249 11.4459 1.6062 11.7273C1.88751 12.0086 2.26892 12.1667 2.66675 12.1667V13.1667C2.00371 13.1667 1.36801 12.9031 0.89917 12.4343C0.430329 11.9654 0.166748 11.3297 0.166748 10.6667Z" fill="#5C5C5C"/>
</svg>
